<?xml version="1.0" encoding="UTF-8" standalone="no"?>
<svg
   xmlns:dc="http://purl.org/dc/elements/1.1/"
   xmlns:cc="http://creativecommons.org/ns#"
   xmlns:rdf="http://www.w3.org/1999/02/22-rdf-syntax-ns#"
   xmlns:svg="http://www.w3.org/2000/svg"
   xmlns="http://www.w3.org/2000/svg"
   xmlns:sodipodi="http://sodipodi.sourceforge.net/DTD/sodipodi-0.dtd"
   xmlns:inkscape="http://www.inkscape.org/namespaces/inkscape"
   viewBox="0 0 200 202.73363"
   version="1.1"
   id="svg26"
   sodipodi:docname="vp3-small.svg"
   inkscape:version="1.0.2-2 (e86c870879, 2021-01-15)"
   width="200"
   height="202.73363">
  <metadata
     id="metadata32">
    <rdf:RDF>
      <cc:Work
         rdf:about="">
        <dc:format>image/svg+xml</dc:format>
        <dc:type
           rdf:resource="http://purl.org/dc/dcmitype/StillImage" />
        <dc:title></dc:title>
      </cc:Work>
    </rdf:RDF>
  </metadata>
  <defs
     id="defs30" />
  <sodipodi:namedview
     pagecolor="#ffffff"
     bordercolor="#666666"
     borderopacity="1"
     objecttolerance="10"
     gridtolerance="10"
     guidetolerance="10"
     inkscape:pageopacity="0"
     inkscape:pageshadow="2"
     inkscape:window-width="1920"
     inkscape:window-height="1017"
     id="namedview28"
     showgrid="false"
     inkscape:zoom="1.7"
     inkscape:cx="143.97662"
     inkscape:cy="197.33405"
     inkscape:window-x="-8"
     inkscape:window-y="-8"
     inkscape:window-maximized="1"
     inkscape:current-layer="svg26"
     inkscape:document-rotation="0" />
  <g
     transform="matrix(0.33726813,0,0,0.25341704,1.0321459e-7,-63.952324)"
     id="g24">
    <path
       d="M 296.52,252.36 C 132.77,252.349 0.01,385.09 0,548.84 c -0.011,163.77 296.52,503.52 296.52,503.52 0,0 296.49,-339.77 296.48,-503.52 C 592.989,385.1 460.26,252.37 296.52,252.36 Z m 0,58.947 c 153.26,0.008 233.813,78.826 233.823,232.086 -0.01,153.26 -235.871,412.801 -235.871,412.801 0,0 -229.757,-263.165 -229.767,-416.435 0.008,-153.27 78.535,-228.462 231.815,-228.452 z m 0.683,84.685 c -75.4,-0.017 -139.947,75.635 -139.953,151.035 -0.017,75.416 63.854,143.825 139.27,143.808 75.4,-0.006 141.295,-73.859 141.278,-149.259 -0.006,-75.384 -65.211,-145.578 -140.595,-145.584 z m -0.683,50.279 c 67.676,0.017 94.546,28.529 94.563,96.205 0.006,67.691 -24.142,92.593 -91.833,92.61 -67.707,0.005 -95.291,-21.269 -95.285,-88.976 0.017,-67.691 24.864,-99.844 92.555,-99.839 z"
       color="#000000"
       color-rendering="auto"
       fill="#404040"
       image-rendering="auto"
       shape-rendering="auto"
       solid-color="#000000"
       style="isolation:auto;mix-blend-mode:normal"
       id="path22" />
  </g>
  <path
     style="font-variation-settings:normal;opacity:1;vector-effect:none;fill:#00296b;fill-opacity:1;stroke:none;stroke-width:0.213772;stroke-linecap:butt;stroke-linejoin:miter;stroke-miterlimit:4;stroke-dasharray:none;stroke-dashoffset:0;stroke-opacity:1;stop-color:#000000;stop-opacity:1"
     d="M 96.316864,199.28814 C 77.752753,182.80713 56.221001,161.45673 41.351961,144.78631 20.489113,121.39584 6.9917713,101.31521 2.2282193,86.580064 0.5614105,81.424108 0.3151313,79.844756 0.3172833,74.325512 0.3193605,69.000244 0.63925,66.20916 1.7796321,61.566396 8.5326193,34.07337 35.246476,11.586287 70.892373,3.388944 76.793725,2.0318375 82.297037,1.1791243 88.871245,0.60321946 93.971773,0.15640836 104.911,0.09461396 109.88285,0.48452736 134.37911,2.4056377 156.17751,10.561406 173.32146,24.219836 c 3.2488,2.588332 10.1635,9.560179 12.59565,12.699939 6.09421,7.867069 10.01823,15.653533 12.16176,24.132733 1.31524,5.202664 1.54201,7.13034 1.54675,13.15234 0.005,5.988636 -0.14605,7.053904 -1.69475,11.969896 -4.58434,14.551706 -17.5391,34.010616 -38.21658,57.403876 -13.6105,15.39807 -32.47174,34.34794 -50.57153,50.80914 -4.394,3.99621 -9.00946,8.08256 -9.12905,8.08256 -0.0619,0 -1.725386,-1.43198 -3.696846,-3.18218 z m 6.068706,-23.3547 c 15.4567,-13.16296 35.32614,-32.8682 46.85776,-46.47045 17.98808,-21.21809 27.629,-38.084198 29.40751,-51.446446 1.09212,-8.204968 -0.55255,-19.784968 -4.00115,-28.172488 -3.59343,-8.739636 -9.9307,-16.399751 -17.96544,-21.71575 -12.37769,-8.189334 -28.97277,-12.502111 -50.55809,-13.139193 -40.297223,-1.189357 -66.114371,8.38673 -77.667638,28.808491 -3.794358,6.706964 -5.973739,14.815908 -6.607588,24.58522 -0.434393,6.695108 0.147973,11.112088 2.326717,17.64706 5.12164,15.361986 18.040162,34.279876 39.221378,57.435906 8.021068,8.7688 23.005176,23.55237 32.470765,32.0361 2.74818,2.46316 3.44607,2.97763 3.74048,2.75742 0.19917,-0.14889 1.448016,-1.19553 2.775296,-2.32587 z"
     id="path34"
     inkscape:export-xdpi="96"
     inkscape:export-ydpi="96" />
  <path
     style="font-variation-settings:normal;opacity:1;vector-effect:none;fill:#fdc500;fill-opacity:1;stroke:none;stroke-width:0.213772;stroke-linecap:butt;stroke-linejoin:miter;stroke-miterlimit:4;stroke-dasharray:none;stroke-dashoffset:0;stroke-opacity:1;stop-color:#000000;stop-opacity:1"
     d="m 95.869794,110.86293 c -0.46462,-0.0563 -1.767777,-0.21576 -2.895973,-0.35436 -7.058,-0.8671 -12.720704,-1.51099 -18.666524,-5.05284 -3.669676,-2.18596 -8.864332,-5.06847 -11.740712,-7.962562 C 55.784801,90.669556 51.547149,80.967728 52.031061,72.997032 52.961117,57.679184 69.391869,41.17686 88.062729,36.47789 c 4.720648,-1.188072 6.451736,-1.06808 11.426965,-1.076961 4.996966,-0.0089 9.282666,0.618479 13.890376,1.744163 17.75896,4.338624 32.02764,18.118852 34.48674,32.22034 1.51628,8.695016 -1.89526,18.075996 -9.43504,25.944356 -7.76268,8.101012 -17.33458,13.904502 -29.16837,15.947032 -2.78849,0.4813 -11.281446,-0.13791 -13.393606,-0.39389 z M 109.1775,96.03582 c 13.78837,-1.901808 20.0593,-5.121056 22.18707,-15.200436 0.69604,-3.297088 0.29345,-9.789116 -0.32612,-13.146372 -0.89597,-4.855072 -1.69509,-7.23246 -4.61961,-10.156968 -3.68223,-3.68228 -8.59971,-5.93686 -16.55209,-7.017992 -4.21276,-0.572724 -14.653746,-0.33724 -18.719985,0.230824 -7.764676,1.084768 -11.143028,2.050588 -14.958168,5.843064 -1.840672,1.829704 -3.811324,2.774516 -4.765052,4.705876 -1.453616,2.943748 -1.783108,5.695048 -2.125932,9.905004 -0.316972,3.893692 0.686968,8.11816 1.467032,11.21114 1.426428,5.655888 3.706356,9.57908 9.292404,11.813852 3.017216,1.207064 8.622284,1.540944 13.158064,1.893688 2.617681,0.203568 6.700321,1.195828 8.963857,0.883616 z"
     id="path859"
     sodipodi:nodetypes="ssssssssssssssssscssssssss" />
</svg>
